<?xml version="1.0" encoding="utf-8"?>
<!-- Generator: Adobe Illustrator 16.0.0, SVG Export Plug-In . SVG Version: 6.00 Build 0)  -->
<!DOCTYPE svg PUBLIC "-//W3C//DTD SVG 1.1//EN" "http://www.w3.org/Graphics/SVG/1.1/DTD/svg11.dtd">
<svg version="1.1" id="Layer_1" xmlns="http://www.w3.org/2000/svg" xmlns:xlink="http://www.w3.org/1999/xlink" x="0px" y="0px"
	 width="128px" height="128px" viewBox="0 0 128 128" enable-background="new 0 0 128 128" xml:space="preserve">
<g>
	<g>
		<g>
			<path fill="#282D33" d="M56.652,116.612H32.53c-5.159,0-9.917-2.843-12.418-7.416c-0.059-0.109-0.131-0.216-0.207-0.329
				l-0.079-0.128L7.74,87.48l3.478-1.978l12.05,21.197c0.143,0.214,0.27,0.418,0.363,0.594c1.79,3.273,5.203,5.318,8.899,5.318
				h20.122v-24.12H22.106v-4.001h34.545V116.612z"/>
		</g>
		<g>
			<path fill="#282D33" d="M113.659,99.096l-3.479-1.978l12.041-21.187c0.111-0.236,0.221-0.447,0.322-0.616
				c1.913-3.236,1.946-7.283,0.083-10.556l-10.06-17.698L92.046,59.098l14.457,25.434l-3.477,1.978L86.618,57.643l27.424-16.084
				l12.063,21.224c2.569,4.515,2.523,10.101-0.121,14.574c-0.056,0.093-0.108,0.204-0.166,0.328l-0.077,0.153L113.659,99.096z"/>
		</g>
		<g>
			<path fill="#282D33" d="M48.928,44.586L21.5,28.504L33.539,7.327c2.572-4.531,7.395-7.293,12.544-7.202
				c0.111-0.002,0.237-0.01,0.379-0.021l0.151-0.006h24.164V4.1h-24.09c-0.255,0.018-0.49,0.027-0.677,0.025
				c-3.66-0.038-7.144,1.92-8.994,5.178L26.928,27.05l20.526,12.035l15.121-26.601l3.477,1.978L48.928,44.586z"/>
		</g>
	</g>
	<g>
		<g>
			<path fill="#282D33" d="M16.498,102.776L1.893,77.211c-2.567-4.52-2.52-10.105,0.122-14.579c0.047-0.082,0.111-0.211,0.175-0.346
				l0.069-0.134l10.803-19.006L3.5,37.541l32.851-3.992l13.017,30.891l-8.643-5.068l-18.395,31.95
				c-0.133,0.281-0.263,0.538-0.384,0.741c-1.664,2.812-2.281,6.147-1.739,9.392L16.498,102.776z M5.773,64.067
				c-0.105,0.218-0.211,0.421-0.304,0.581c-1.924,3.26-1.959,7.31-0.1,10.583L16.549,94.8c0.416-1.669,1.071-3.278,1.956-4.773
				c0.075-0.128,0.153-0.293,0.236-0.472l0.081-0.155L39.27,53.88l1.736,1.018l-7.17-17.014l-18.093,2.198l2.747,1.61L5.773,64.067z
				"/>
		</g>
		<g>
			<path fill="#282D33" d="M73.196,127.909l-19.862-26.944l19.862-26.944v10.188l36.442,0.206c0.268-0.021,0.521-0.033,0.734-0.033
				l0.311,0.002c3.134,0,6.191-1.119,8.607-3.151l3.028,2.515l-14.495,25.629c-2.525,4.448-7.238,7.209-12.302,7.209l-0.245-0.002
				c-0.079,0-0.227,0.007-0.38,0.019l-0.149,0.006H73.196V127.909z M58.305,100.965l10.892,14.774v-3.133h25.48
				c0.234-0.016,0.458-0.024,0.636-0.024l0.21,0.002c3.626,0,7.006-1.986,8.821-5.181l11.144-19.702
				c-1.554,0.448-3.17,0.683-4.804,0.683l-0.292-0.002h-0.001c-0.162,0-0.336,0.012-0.518,0.025l-0.173,0.007l-40.504-0.23V86.19
				L58.305,100.965z"/>
		</g>
		<g>
			<path fill="#282D33" d="M102.521,52.187l-32.848-3.995l8.606-5.046L60.206,10.937c-0.169-0.255-0.322-0.493-0.434-0.696
				c-1.567-2.872-4.092-5.076-7.112-6.211l0.699-3.872l29.098-0.066c5.164,0,9.923,2.843,12.423,7.42
				c0.035,0.058,0.113,0.186,0.205,0.321l0.084,0.135l10.771,18.954l9.599-5.633L102.521,52.187z M81.914,45.65l18.092,2.201
				l7.169-17.017l-2.707,1.59l-12.74-22.418c-0.13-0.195-0.242-0.379-0.331-0.531c-1.825-3.34-5.24-5.385-8.935-5.385L60.12,4.142
				c1.244,1.216,2.313,2.621,3.161,4.177c0.072,0.131,0.179,0.288,0.293,0.458l0.083,0.135L83.688,44.61L81.914,45.65z"/>
		</g>
	</g>
</g>
</svg>
